<svg width="391" height="376" xmlns="http://www.w3.org/2000/svg">
 <!-- Created with Method Draw - http://github.com/duopixel/Method-Draw/ -->
 <g>
  <title>background</title>
  <rect fill="none" id="canvas_background" height="378" width="393" y="-1" x="-1"/>
  <g display="none" overflow="visible" y="0" x="0" height="100%" width="100%" id="canvasGrid">
   <rect fill="url(#gridpattern)" stroke-width="0" y="0" x="0" height="100%" width="100%"/>
  </g>
 </g>
 <g>
  <title>Layer 1</title>
  <ellipse stroke="#000" ry="181.499992" rx="186.499997" id="svg_1" cy="187.999992" cx="196.999997" stroke-width="1.5" fill="#e2e2e2"/>
  <path id="svg_4" d="m46.5,134.5c0,0 39,116 39,116c0,0 34,-68 34,-68c0,0 28,65 28,65c0,0 33,-111 33,-111" fill-opacity="null" stroke-opacity="null" stroke-width="7.5" stroke="#000" fill="#e2e2e2"/>
  <path id="svg_6" d="m295.5,130.5c0,0 3,120 2.5,119.5c0.5,0.5 53.5,-33.5 53.5,-33.5c0,0 -44,-32 -44,-32c0,0 41,-34 41,-34c0,0 -53,-20 -53,-20z" fill-opacity="null" stroke-opacity="null" stroke-width="7.5" stroke="#000" fill="#e2e2e2"/>
  <path id="svg_5" d="m189.5,139.5c0,0 33,58 33,58c0,0 26,-59 26,-59c0,0 36,115 36,115" stroke-width="7.5" stroke="#000" fill="#DDDDDD"/>
  <text stroke="#000" transform="matrix(1.1259843111038208,0,0,1.2068965435028076,-29.291352331638336,-59.68965280056) " xml:space="preserve" text-anchor="start" font-family="Georgia, Times, 'Times New Roman', serif" font-size="24" id="svg_8" y="307.357143" x="144.576928" fill-opacity="null" stroke-opacity="null" stroke-width="0" fill="#000000">Web Design</text>
  <path id="svg_9" d="m110.940407,99.510204c0.710292,-1.35662 1.261918,-2.801898 1.623737,-4.314727c1.413171,-5.152059 0.987588,-9.645511 0.987588,-9.645511l-0.484897,2.960921c0,0 -0.695464,-5.482771 -1.548111,-7.533181c-1.306404,-3.139646 -1.887687,-3.115722 -1.88917,-3.110093c0.803713,1.940642 0.732535,3.052395 0.716224,3.219861c-0.014829,-0.022517 -0.028174,-0.045033 -0.040037,-0.066142c-0.194255,-0.455959 -1.181844,-2.559846 -3.299375,-4.050158c-3.710129,-3.491467 -8.812668,-5.64883 -14.450522,-5.650237c-6.014502,0 -11.425477,2.455707 -15.181575,6.367951c-0.474517,-0.651572 -0.861545,-1.442464 -0.897133,-2.316386c0,0 -0.002966,0.002815 -0.008897,0.007036c0,-0.01548 -0.004449,-0.029553 -0.004449,-0.043626c0,0 -2.387413,1.754881 -2.129395,6.490385c-0.443377,0.80778 -0.830405,1.649335 -1.152186,2.520442c-0.556074,1.149749 -1.112149,2.820193 -1.570354,5.271678c0,0 0.197221,-0.593873 0.591663,-1.390395c-0.094903,0.67831 -0.152735,1.366471 -0.172012,2.064483c-0.133458,1.189153 -0.174978,2.624581 -0.057832,4.345687c0,0 0.047452,-0.571356 0.20167,-1.436835c1.23671,9.645511 9.886263,17.119586 20.379018,17.119586l0,0c2.758129,0 5.391698,-0.520694 7.79394,-1.457944c5.458427,-1.891387 8.688108,-5.515138 10.592107,-9.352796zm-18.384564,-26.897381c3.627088,0 7.013953,0.956952 9.90554,2.617545c-3.372036,-0.743045 -5.090676,-0.367301 -5.075848,-0.349006c0.019277,0.021109 5.018016,0.828889 5.903287,1.985675c0,0 -2.12198,0 -4.235063,0.576986c-0.096386,0.026738 7.77318,0.933028 9.382089,8.395844c0,0 -0.863028,-1.707033 -1.929208,-1.99834c0.701395,2.025079 0.520486,5.868366 -0.148287,7.779455c-0.086006,0.244867 -0.174978,-1.062498 -1.488797,-1.625411c0.421134,2.866633 -0.026692,7.413562 -2.123463,8.666043c-0.161632,0.09851 1.315302,-4.487822 0.298056,-2.716054c-6.069368,8.832102 -13.28499,3.573089 -16.213649,1.699997c2.350341,0.546025 4.844521,0.151986 6.290315,-0.786671c1.456174,-0.945694 2.319201,-1.635262 3.09474,-1.473424c0.774056,0.164652 1.290093,-0.572764 0.688049,-1.22715c-0.60056,-0.655793 -2.064148,-1.555047 -4.040808,-1.065312c-1.393893,0.347599 -3.124397,1.811172 -5.762414,0.327897c-2.250989,-1.265147 -2.234678,-2.29387 -2.234678,-2.948256c0,-0.515065 0.381096,-1.238408 1.088423,-1.446686c0.860062,0.087251 1.548111,0.301158 2.279164,0.655793c0.007414,-0.189983 0.008897,-0.443294 -0.001483,-0.730379c0.057832,-0.108361 0.022243,-0.437665 -0.069695,-0.83874c-0.053383,-0.40389 -0.143838,-0.819038 -0.281744,-1.197597c0.014829,-0.002815 0.025209,-0.009851 0.03114,-0.029553c0.112698,-0.484105 3.183712,-2.172843 3.409107,-2.334681c0.226878,-0.16043 0.815576,-0.531953 0.75033,-1.664815c-0.022243,-0.37293 -0.086006,-0.413741 -3.309755,-0.402483c-1.359787,0.004222 -2.113083,-1.25811 -2.356273,-1.752066c0.329196,-1.732364 1.279713,-2.969365 2.845618,-3.805291c0.029657,-0.01548 0.022243,-0.029553 -0.011863,-0.037997c0.324747,-0.178725 -3.742752,-0.008444 -5.575573,2.25728c-0.490828,0.066142 -1.165532,-0.06755 -1.920311,-0.06755c-0.946068,0 -1.688984,0.09851 -2.377033,0.263162c-0.074143,0.018295 -0.18091,0.01548 -0.308436,-0.001407c-0.192772,-0.135099 -0.480448,-0.360264 -0.79185,-0.652979c0.238741,-0.253311 0.480448,-0.500992 0.734018,-0.74023c3.471388,-3.295854 8.25956,-5.332191 13.556354,-5.333599z" fill-opacity="null" stroke-opacity="null" stroke-width="0" stroke="#000" fill="#000000"/>
  <path stroke="#000" id="svg_10" d="m164.977469,71.418936c-3.223006,-2.890752 -10.52798,0.57815 -14.556737,2.921021c-1.155417,-0.181618 -2.367085,-0.279994 -3.630443,-0.279994c-5.091437,0 -9.20077,1.49078 -12.323437,4.302831c-3.551388,3.237339 -5.520158,7.476604 -5.520158,12.375747c0,0.042378 0.00152,0.084755 0.00152,0.127133c4.99718,-7.794435 12.682225,-11.790029 14.719408,-12.844927c0.322301,-0.149835 0.513857,0.23459 0.21436,0.382911c-0.022804,0.063566 -0.022804,0 0,0c-3.426724,2.043201 -9.781519,7.959405 -13.904534,16.475771l-0.004561,-0.010594c-2.610331,5.368323 -4.814745,12.908493 -0.405916,15.676653c3.340068,2.091633 9.319352,-0.375344 14.131057,-3.508253c1.161498,0.163456 2.382288,0.249725 3.67149,0.249725c8.878469,0 15.107081,-4.877954 17.329739,-11.992836l-12.195733,-0.021189c-0.512336,2.513895 -2.225698,3.856354 -4.899881,3.856354c-3.359832,0 -5.669146,-1.832827 -5.819654,-6.072092l23.150913,-0.021189c0.042568,-0.874793 -0.063852,-1.49078 -0.063852,-2.173361c0,-7.947297 -4.778258,-14.158629 -12.54996,-16.138265c3.163715,-1.958446 9.082188,-4.856766 11.931203,-2.544164c2.139042,1.72537 0.962341,5.347134 0.448484,6.837914c-0.085136,0.384425 0.364869,0.447991 0.450005,0.086269c1.067241,-2.680378 1.389541,-6.280953 -0.173313,-7.685465zm-22.38773,35.430627c-3.753586,2.232387 -8.928639,3.842732 -11.461435,1.950879c-1.889715,-1.415106 -1.058119,-5.248758 0.605074,-8.98706c1.00947,1.501375 2.272827,2.854428 3.759667,3.980459c2.009818,1.504402 4.370822,2.522975 7.096694,3.055721zm-0.84832,-19.115285c0.063852,-3.68533 2.716751,-5.282054 5.498874,-5.282054c2.931111,0 5.305798,1.682993 5.305798,5.282054l-10.804672,0z" fill-opacity="null" stroke-opacity="null" stroke-width="0" fill="#000000"/>
  <path stroke="#000" id="svg_11" d="m203.510165,71.320945c-11.299995,0 -19.422291,7.727166 -19.422291,19.319338c0,10.31332 7.897473,19.68066 19.4238,19.68066c11.636475,0 19.576197,-9.364495 19.576197,-19.68066c0,-11.684636 -8.380314,-19.319338 -19.577706,-19.319338zm-0.003018,34.854754l0,0c-3.453824,0 -5.265988,-2.291691 -6.218091,-5.399912c-0.428522,-1.47516 -0.691067,-3.108221 -0.849499,-4.752662c-0.172012,-1.954552 -0.194645,-3.944667 -0.194645,-5.729938c0,-1.412569 0.02716,-2.815181 0.111657,-4.162314c0.187101,-2.458126 0.582427,-4.88069 1.342902,-6.875072c1.047162,-2.443901 2.823113,-4.014371 5.807676,-4.014371c3.772198,0 5.677912,2.534943 6.616435,6.148161c0.647309,2.694266 0.844972,5.866501 0.844972,8.924934c0,3.270389 -0.155415,7.330281 -1.151275,10.586445c-0.997369,3.042785 -2.854799,5.27473 -6.310132,5.27473z" fill-opacity="null" stroke-opacity="null" stroke-width="0" fill="#000000"/>
  <path id="svg_12" d="m256.650956,81.008848c-3.870463,0 -7.027061,3.074448 -7.027061,6.842444s3.156598,6.842444 7.027061,6.842444c3.870463,0 7.027061,-3.074448 7.027061,-6.842444s-3.156598,-6.842444 -7.027061,-6.842444zm17.823756,6.810022c-0.496075,-2.564155 -1.435795,-4.302254 -2.32174,-5.631555c0.067219,0.181845 0.120994,0.3651 0.185524,0.546944c-3.145843,-8.95833 -15.734593,-13.814577 -25.458475,-7.654403c-0.075285,0.380606 -0.09814,0.758392 -0.09814,1.133359c0,-0.071892 -0.008066,-0.138146 -0.005378,-0.211448c-2.34325,-0.188893 -5.181231,2.90529 -7.704627,8.574905c-1.281192,3.209775 -1.745002,6.724034 -0.556572,10.844443c0.693699,2.404864 1.785333,4.871753 3.359599,6.786058c4.666334,5.676663 11.814389,7.992719 15.976581,6.815661c0.005378,0.00141 0.012099,0.004229 0.018821,0.005639c8.024589,-0.176206 14.107896,-5.960003 16.300576,-13.488947c0.78915,-2.717807 0.840236,-4.942235 0.303829,-7.720657zm-31.582114,13.467803c-1.290602,-1.567532 -2.359382,-3.736984 -3.090724,-6.275765c-0.985429,-3.411355 -0.822759,-6.554876 0.509519,-9.8887c1.352444,-3.034978 2.672622,-5.029634 3.808621,-6.229246c0.201657,1.045961 0.700421,2.294911 1.496292,3.734165c0.293074,0.534258 0.617069,0.988165 0.930309,1.426567c0.240644,0.334087 0.478598,0.668174 0.689666,1.027635c0.166703,0.284749 0.321306,0.627295 0.47591,1.038913c-0.321306,3.882178 1.199185,7.242785 4.2321,9.415057l-3.422785,3.171714l-0.271564,0.24105c-0.279631,0.24105 -0.600937,0.5258 -0.87519,0.830284c-1.828353,2.035536 -0.336094,3.990721 0.384492,4.930958l0.091418,0.12264c0.318617,0.418666 0.689666,0.873983 1.095668,1.322252c-2.128149,-1.082612 -4.263021,-2.689614 -6.053731,-4.867524zm29.994404,-6.160174c-2.151004,7.375292 -7.981569,12.263961 -14.882258,12.488095c-3.340778,-0.821826 -5.864174,-2.509178 -7.509692,-5.014128c0.005378,-0.005639 0.013444,-0.011277 0.020166,-0.018325l6.646602,-5.40742c2.992584,-0.174797 5.181231,-1.25177 6.516197,-3.211184c1.642829,-1.990427 2.409124,-4.264193 2.276031,-6.852312c2.442734,0.531438 4.556095,1.272915 6.526952,2.654372l0.155948,0.109953l0.180147,0.060615c0.209723,0.069073 0.418101,0.107133 0.617069,0.114182c0.146537,1.747967 -0.028232,3.288715 -0.547162,5.076152zm0.342816,-6.530912c-2.62288,-1.841004 -5.460861,-2.631818 -8.864825,-3.221052c0.713864,3.323956 -0.112928,5.740098 -1.782644,7.769995c-1.185741,1.740919 -3.202307,2.568384 -5.907194,2.643095l-7.01765,5.711905c-0.668156,0.576547 -0.794527,1.154504 -0.379114,1.732461c1.141376,1.800124 2.593304,3.104051 4.197146,4.056975c-0.017477,0 -0.034954,0.002819 -0.052431,0.004229c-0.001344,-0.00141 -0.005378,-0.002819 -0.008066,-0.005639c-0.026888,0.004229 -0.055119,0.005639 -0.083351,0.007048c-0.10755,0.00141 -0.2151,-0.00141 -0.321306,-0.014097c-0.209723,-0.029603 -0.422135,-0.090218 -0.617069,-0.166339c-1.207251,-0.469414 -2.540873,-1.905848 -3.491348,-3.156208c-0.781083,-1.029045 -1.621319,-2.020029 -0.552539,-3.206955c0.346849,-0.384835 0.782428,-0.72456 1.060714,-0.983936l3.389175,-3.142111c0.231233,-0.193122 0.470532,-0.390473 0.719242,-0.596282c0.071252,-0.059205 0.143848,-0.118411 0.217789,-0.179026c0.758229,-0.623066 0.649334,-0.451088 -0.145193,-0.904996c-3.252049,-1.860739 -4.943276,-5.094478 -4.509042,-9.006258c-0.200312,-0.577957 -0.426168,-1.116443 -0.696387,-1.584447c-0.488009,-0.84579 -1.121211,-1.553435 -1.605187,-2.428828c-1.20994,-2.193416 -2.483065,-5.500457 0.017477,-5.190334c-0.006722,-0.074711 -0.002689,-0.155062 -0.006722,-0.231183c0.126371,2.820711 2.05152,5.389095 2.341905,6.890373c0.104861,0.538487 0.395247,0.993804 0.822759,0.394702c3.41203,-4.785764 8.159026,-4.303664 11.195975,-1.849462c0.595559,0.479281 0.919554,1.064286 1.457305,1.564712c0.207034,0.194532 0.440956,0.3651 0.719242,0.494787c0.998872,0.468004 2.42929,0.439811 3.504792,0.611788c1.843141,0.293207 3.63923,0.654078 5.338523,1.144636c0.336094,0.04229 0.570016,-0.005639 0.700421,-0.142375c0.283664,-0.293207 -0.002689,-1.25036 -0.16267,-1.780389c0.372393,1.134769 0.720586,2.268128 1.039204,3.404306c0.243332,0.885261 0.185524,1.599954 -0.51893,1.358903z" fill-opacity="null" stroke-opacity="null" stroke-width="0" stroke="#000" fill="#000000"/>
  <path id="svg_13" d="m308.656772,75.958078c-0.769682,0 -1.527146,0.042809 -2.272393,0.122902l-0.054977,-0.248566c-0.03207,-0.143616 -0.091629,-0.273423 -0.17104,-0.390801c0.581843,-0.425324 0.954466,-1.074357 0.954466,-1.803484c0,-1.280115 -1.146887,-2.317187 -2.562551,-2.317187s-2.562551,1.037073 -2.562551,2.317187c0,1.028787 0.740666,1.900149 1.766908,2.202571c-0.03207,0.144997 -0.03207,0.298279 0,0.452942l0.050396,0.230614c-8.142743,1.940196 -14.149008,8.643192 -14.149008,16.616636c0,9.488316 8.507731,17.180052 19.000752,17.180052c10.493021,0 18.999224,-7.691736 18.999224,-17.180052c0.001527,-9.489697 -8.506204,-17.182814 -18.999224,-17.182814zm0.328336,4.094434c6.803436,0 12.496636,4.302953 13.932154,10.06278l-0.879636,0.323136c-0.226018,-0.940408 -1.152995,-1.644678 -2.260176,-1.644678c-1.278221,0 -2.315153,0.937646 -2.315153,2.093478c0,0.103569 0.012217,0.204376 0.027489,0.305184l-4.231722,-0.038666c-0.082466,-0.158806 -0.174095,-0.312088 -0.277941,-0.459847l5.19077,-7.056512l0.083993,-0.114617l-7.278378,5.605163c-0.537555,-0.216805 -1.130088,-0.342469 -1.753164,-0.353516l0.131335,-0.024857l-1.797451,-3.569684c0.977373,-0.244423 1.696659,-1.053644 1.696659,-2.014765c0,-1.155832 -1.035405,-2.092097 -2.315153,-2.092097c-0.114536,0 -0.22449,0.009666 -0.334445,0.024857l0.088574,-0.875505c0.746774,-0.113236 1.511875,-0.169853 2.292246,-0.169853zm-6.449138,-6.414383c0,-1.00393 0.902543,-1.820055 2.012779,-1.820055c1.110235,0 2.012779,0.816125 2.012779,1.820055c0,0.586892 -0.310011,1.1075 -0.788007,1.440302c-0.279468,-0.169853 -0.630711,-0.243042 -0.988064,-0.17952c-0.345135,0.062141 -0.630711,0.24028 -0.817023,0.481942c-0.827713,-0.226471 -1.432463,-0.922456 -1.432463,-1.742724zm-7.832732,19.328767c0,-6.135437 4.731099,-11.272467 11.074863,-12.588486l0.453562,0.791268c-0.931559,0.270661 -1.605031,1.060548 -1.605031,1.99129c0,1.155832 1.035405,2.093478 2.313626,2.093478c0.103846,0 0.206165,-0.008286 0.305429,-0.020714l-0.088574,3.928723l0.079412,-0.01519c-0.674999,0.281708 -1.258368,0.708413 -1.704295,1.235925l0.142025,-0.202996l-2.403728,-0.832696l1.789815,1.710963l0.039706,-0.057999c-0.290158,0.512322 -0.467307,1.088167 -0.494795,1.697153l-0.004581,-0.022095l-4.005704,1.669535c-0.303902,-0.834077 -1.171321,-1.43754 -2.196036,-1.43754c-1.278221,0 -2.315153,0.936265 -2.315153,2.093478c0,0.088379 0.007636,0.176758 0.019853,0.263756l-1.195755,-0.10495c-0.134389,-0.712556 -0.204638,-1.444445 -0.204638,-2.192904zm14.28187,12.915765c-6.76373,0 -12.427915,-4.250478 -13.906192,-9.957829l1.055258,-0.487466c0.222963,0.947313 1.149941,1.657107 2.26323,1.657107c1.278221,0 2.313626,-0.937646 2.313626,-2.093478c0,-0.144997 -0.016799,-0.285851 -0.047342,-0.423943l4.364583,0.041428c0.068722,0.131188 0.146606,0.258232 0.229072,0.381135l-5.268654,7.287126l0.346662,-0.26928l6.916445,-5.413215c0.513121,0.211281 1.076638,0.342469 1.670698,0.367325l-0.029016,0.005524l1.872281,3.627682c-1.000281,0.229233 -1.744001,1.049501 -1.744001,2.027194c0,1.155832 1.035405,2.092097 2.315153,2.092097c0.116063,0 0.230599,-0.009666 0.343608,-0.024857l0.006109,0.950074c-0.873528,0.151901 -1.776071,0.233376 -2.701521,0.233376zm3.501746,-0.392182l-0.59406,-0.828553c1.009444,-0.226471 1.759272,-1.04812 1.759272,-2.029956c0,-1.155832 -1.038459,-2.093478 -2.315153,-2.093478c-0.100792,0 -0.198529,0.006905 -0.294739,0.019333l0,-3.949437l-0.038179,0.005524c0.624603,-0.255471 1.175902,-0.633843 1.611139,-1.101976l2.315153,0.910028l-1.685969,-1.800722c0.241289,-0.462609 0.390949,-0.972169 0.424547,-1.51211l3.897277,-1.607393c0.290158,0.85341 1.169794,1.474825 2.20978,1.474825c1.279748,0 2.315153,-0.937646 2.315153,-2.093478c0,-0.095284 -0.009163,-0.189186 -0.024434,-0.281708l0.992645,0.165711c0.135916,0.713937 0.207692,1.448587 0.207692,2.197047c0.001527,6.042915 -4.584493,11.115042 -10.780124,12.526345z" fill-opacity="null" stroke-opacity="null" stroke-width="0" stroke="#000" fill="#000000"/>
 </g>
</svg>